<?xml version="1.0" encoding="UTF-8" standalone="no"?>
<!DOCTYPE svg PUBLIC "-//W3C//DTD SVG 1.1//EN" "http://www.w3.org/Graphics/SVG/1.1/DTD/svg11.dtd">
<svg width="100%" height="100%" viewBox="0 0 1162 515" version="1.1" xmlns="http://www.w3.org/2000/svg" xmlns:xlink="http://www.w3.org/1999/xlink" xml:space="preserve" xmlns:serif="http://www.serif.com/" style="fill-rule:evenodd;clip-rule:evenodd;stroke-linecap:round;stroke-linejoin:round;stroke-miterlimit:1.5;">
    <g id="Mesa-de-trabajo1" serif:id="Mesa de trabajo1" transform="matrix(1.161271,0,0,0.224986,0,0)">
        <rect x="0" y="0" width="1000" height="1000" style="fill:none;"/>
        <clipPath id="_clip1">
            <rect x="0" y="0" width="1000" height="1000"/>
        </clipPath>
        <g clip-path="url(#_clip1)">
            <g transform="matrix(0.895942,0,0,2.150894,52.43312,164.011913)">
                <rect x="-76.963" y="-140.012" width="1175.904" height="598.476" style="stroke:rgb(187,0,0);stroke-width:30.81px;"/>
            </g>
            <g id="logo-junto" serif:id="logo junto">
                <g transform="matrix(1.27988,0,0,1.934098,-82.654682,-437.250139)">
                    <g transform="matrix(0.570954,0,0,2.298085,38.106425,0)">
                        <path d="M374.093,239.872L1262.929,239.872"/>
                    </g>
                    <g transform="matrix(0.570954,0,0,2.298085,38.106425,0)">
                        <path d="M374.093,244.039C371.383,244.039 369.183,242.172 369.183,239.872C369.183,237.573 371.383,235.706 374.093,235.706L1262.929,235.706C1265.639,235.706 1267.839,237.573 1267.839,239.872C1267.839,242.172 1265.639,244.039 1262.929,244.039L374.093,244.039ZM1400.863,222.229C1400.863,220.504 1402.513,219.104 1404.546,219.104C1406.578,219.104 1408.228,220.504 1408.228,222.229L1408.228,257.516C1408.228,259.241 1406.578,260.641 1404.546,260.641C1402.513,260.641 1400.863,259.241 1400.863,257.516L1400.863,222.229ZM1387.9,226.433C1387.9,224.708 1389.551,223.308 1391.583,223.308C1393.615,223.308 1395.266,224.708 1395.266,226.433L1395.266,253.312C1395.266,255.037 1393.615,256.437 1391.583,256.437C1389.551,256.437 1387.9,255.037 1387.9,253.312L1387.9,226.433ZM1374.938,219.005C1374.938,217.281 1376.588,215.88 1378.621,215.88C1380.653,215.88 1382.303,217.281 1382.303,219.005L1382.303,260.739C1382.303,262.464 1380.653,263.864 1378.621,263.864C1376.588,263.864 1374.938,262.464 1374.938,260.739L1374.938,219.005ZM1361.975,226.433C1361.975,224.708 1363.626,223.308 1365.658,223.308C1367.69,223.308 1369.341,224.708 1369.341,226.433L1369.341,253.312C1369.341,255.037 1367.69,256.437 1365.658,256.437C1363.626,256.437 1361.975,255.037 1361.975,253.312L1361.975,226.433ZM1349.013,232.038C1349.013,230.313 1350.663,228.913 1352.696,228.913C1354.728,228.913 1356.378,230.313 1356.378,232.038L1356.378,247.707C1356.378,249.431 1354.728,250.832 1352.696,250.832C1350.663,250.832 1349.013,249.431 1349.013,247.707L1349.013,232.038ZM1336.05,220.407C1336.05,218.682 1337.701,217.282 1339.733,217.282C1341.765,217.282 1343.416,218.682 1343.416,220.407L1343.416,259.338C1343.416,261.063 1341.765,262.463 1339.733,262.463C1337.701,262.463 1336.05,261.063 1336.05,259.338L1336.05,220.407ZM1323.088,217.604C1323.088,215.879 1324.738,214.479 1326.77,214.479C1328.803,214.479 1330.453,215.879 1330.453,217.604L1330.453,262.14C1330.453,263.865 1328.803,265.265 1326.77,265.265C1324.738,265.265 1323.088,263.865 1323.088,262.14L1323.088,217.604ZM1310.125,226.433C1310.125,224.708 1311.776,223.308 1313.808,223.308C1315.84,223.308 1317.491,224.708 1317.491,226.433L1317.491,253.312C1317.491,255.037 1315.84,256.437 1313.808,256.437C1311.776,256.437 1310.125,255.037 1310.125,253.312L1310.125,226.433ZM1297.163,232.038C1297.163,230.313 1298.813,228.913 1300.845,228.913C1302.878,228.913 1304.528,230.313 1304.528,232.038L1304.528,247.707C1304.528,249.431 1302.878,250.832 1300.845,250.832C1298.813,250.832 1297.163,249.431 1297.163,247.707L1297.163,232.038ZM1284.2,228.815C1284.2,227.09 1285.851,225.69 1287.883,225.69C1289.915,225.69 1291.566,227.09 1291.566,228.815L1291.566,250.93C1291.566,252.654 1289.915,254.055 1287.883,254.055C1285.851,254.055 1284.2,252.654 1284.2,250.93L1284.2,228.815ZM1271.238,233.72C1271.238,231.995 1272.888,230.595 1274.92,230.595C1276.953,230.595 1278.603,231.995 1278.603,233.72L1278.603,246.025C1278.603,247.75 1276.953,249.15 1274.92,249.15C1272.888,249.15 1271.238,247.75 1271.238,246.025L1271.238,233.72Z" style="fill:rgb(184,0,0);"/>
                    </g>
                </g>
                <g transform="matrix(0.25028,0,0,2.452159,818.892103,95.393073)">
                    <path d="M84.866,121.274L84.866,161.987L29.314,161.987L29.314,0L84.866,0L84.866,93.52L88.146,93.52C104.408,93.52 117.767,92.027 128.221,89.039C138.676,86.051 146.909,81.191 152.923,74.46C158.936,67.728 163.309,58.747 166.042,47.516L223.234,47.516C217.358,72.282 204.102,90.767 183.466,102.97C181.476,104.146 179.415,105.266 177.282,106.329L237.173,161.987L171.372,161.987L130.641,119.402C120.682,120.65 109.933,121.274 98.395,121.274L84.866,121.274ZM400.503,137.797C399.443,142.91 396.725,147.284 392.351,150.918C387.021,155.345 379.539,158.657 369.904,160.853C360.27,163.049 348.756,164.147 335.364,164.147C312.268,164.147 294.297,161.159 281.451,155.183C268.605,149.208 262.182,140.713 262.182,129.697C262.182,116.882 270.587,107.055 287.396,100.216C304.205,93.376 328.052,89.957 358.937,89.957C370.827,89.957 381.111,90.281 389.788,90.929C394.305,91.266 398.849,91.701 403.42,92.233L403.42,91.901C403.42,85.781 398.466,81.299 388.559,78.456C378.651,75.612 363.926,74.046 344.383,73.758L288.831,73.002L292.931,46.436L340.283,46.76C379.641,47.048 408.887,51.134 428.019,59.017C447.151,66.901 456.718,78.402 456.718,93.52L456.718,135.853L486.851,138.229L486.851,161.987L408.955,163.067L405.441,137.797L400.503,137.797ZM403.395,116.301C396.124,115.487 389.505,115.003 383.536,114.849C376.567,114.669 369.255,114.579 361.602,114.579C332.904,114.579 318.554,118.898 318.554,127.538C318.554,131.425 321.151,134.395 326.344,136.447C331.537,138.499 339.122,139.525 349.098,139.525C361.124,139.525 371.169,138.337 379.231,135.961C387.294,133.585 393.342,130.561 397.373,126.89C401.145,123.455 403.152,119.925 403.395,116.301ZM610.255,33.693C597.409,33.693 584.768,35.385 572.332,38.769C559.896,42.153 549.305,46.652 540.559,52.268L510.63,31.965C520.743,24.262 535.092,18.089 553.678,13.445C572.264,8.801 592.421,6.479 614.15,6.479C641.892,6.479 663.416,9.665 678.722,16.037C694.028,22.408 701.681,31.389 701.681,42.981C701.681,51.692 697.615,59.629 689.484,66.793C681.353,73.956 669.087,80.309 652.688,85.853C645.992,88.157 641.072,90.839 637.929,93.898C634.786,96.958 633.214,100.72 633.214,105.183L633.214,109.179L579.507,109.179L579.507,100.108C579.507,92.692 582.821,86.375 589.449,81.155C596.077,75.936 606.224,70.95 619.89,66.199C627.269,63.679 632.941,60.745 636.904,57.397C640.867,54.05 642.849,50.504 642.849,46.76C642.849,42.585 640.047,39.363 634.444,37.095C628.841,34.827 620.778,33.693 610.255,33.693ZM607.18,164.147C596.794,164.147 587.98,162.221 580.737,158.369C573.494,154.517 569.872,149.892 569.872,144.492C569.872,139.021 573.494,134.377 580.737,130.561C587.98,126.746 596.794,124.838 607.18,124.838C617.566,124.838 626.381,126.746 633.624,130.561C640.867,134.377 644.489,139.021 644.489,144.492C644.489,149.892 640.867,154.517 633.624,158.369C626.381,162.221 617.566,164.147 607.18,164.147ZM-2450.977,155.991C-2450.594,158.986 -2450.348,162.002 -2450.242,165.035L-2493.596,165.181C-2495.21,127.511 -2527.92,93.266 -2578.003,67.416L-2536.603,47.634C-2505.962,66.011 -2482.187,87.638 -2467.398,111.407L-2449.093,47.012L-2409.325,47.012L-2384.521,134.269L-2380.831,134.269L-2367.507,47.012L-2315.029,47.012L-2335.528,161.482L-2406.045,161.482L-2427.979,75.197L-2430.439,75.197L-2450.977,155.991ZM-2149.934,137.797C-2150.994,142.91 -2153.712,147.284 -2158.086,150.918C-2163.416,155.345 -2170.898,158.657 -2180.533,160.853C-2190.167,163.049 -2201.681,164.147 -2215.073,164.147C-2238.169,164.147 -2256.14,161.159 -2268.986,155.183C-2281.832,149.208 -2288.255,140.713 -2288.255,129.697C-2288.255,116.882 -2279.85,107.055 -2263.041,100.216C-2246.232,93.376 -2222.385,89.957 -2191.5,89.957C-2179.61,89.957 -2169.326,90.281 -2160.649,90.929C-2156.132,91.266 -2151.588,91.701 -2147.017,92.233L-2147.017,91.901C-2147.017,85.781 -2151.971,81.299 -2161.878,78.456C-2171.786,75.612 -2186.511,74.046 -2206.054,73.758L-2261.606,73.002L-2257.506,46.436L-2210.154,46.76C-2170.796,47.048 -2141.55,51.134 -2122.418,59.017C-2103.285,66.901 -2093.719,78.402 -2093.719,93.52L-2093.719,135.853L-2063.586,138.229L-2063.586,161.987L-2141.482,163.067L-2144.996,137.797L-2149.934,137.797ZM-2147.042,116.301C-2154.313,115.487 -2160.932,115.003 -2166.901,114.849C-2173.87,114.669 -2181.182,114.579 -2188.835,114.579C-2217.533,114.579 -2231.883,118.898 -2231.883,127.538C-2231.883,131.425 -2229.286,134.395 -2224.093,136.447C-2218.9,138.499 -2211.315,139.525 -2201.339,139.525C-2189.313,139.525 -2179.268,138.337 -2171.206,135.961C-2163.143,133.585 -2157.095,130.561 -2153.064,126.89C-2149.292,123.455 -2147.285,119.925 -2147.042,116.301ZM-1657.958,137.797C-1659.018,142.91 -1661.736,147.284 -1666.11,150.918C-1671.44,155.345 -1678.922,158.657 -1688.557,160.853C-1698.191,163.049 -1709.705,164.147 -1723.097,164.147C-1746.193,164.147 -1764.164,161.159 -1777.01,155.183C-1789.856,149.208 -1796.279,140.713 -1796.279,129.697C-1796.279,116.882 -1787.874,107.055 -1771.065,100.216C-1754.256,93.376 -1730.409,89.957 -1699.524,89.957C-1687.634,89.957 -1677.35,90.281 -1668.673,90.929C-1664.156,91.266 -1659.612,91.701 -1655.041,92.233L-1655.041,91.901C-1655.041,85.781 -1659.995,81.299 -1669.903,78.456C-1679.81,75.612 -1694.535,74.046 -1714.078,73.758L-1769.63,73.002L-1765.53,46.436L-1718.178,46.76C-1678.82,47.048 -1649.574,51.134 -1630.442,59.017C-1611.31,66.901 -1601.743,78.402 -1601.743,93.52L-1601.743,135.853L-1571.61,138.229L-1571.61,161.987L-1649.506,163.067L-1653.02,137.797L-1657.958,137.797ZM-1655.066,116.301C-1662.337,115.487 -1668.956,115.003 -1674.925,114.849C-1681.894,114.669 -1689.206,114.579 -1696.859,114.579C-1725.557,114.579 -1739.907,118.898 -1739.907,127.538C-1739.907,131.425 -1737.31,134.395 -1732.117,136.447C-1726.924,138.499 -1719.339,139.525 -1709.363,139.525C-1697.337,139.525 -1687.292,138.337 -1679.23,135.961C-1671.167,133.585 -1665.119,130.561 -1661.088,126.89C-1657.316,123.455 -1655.309,119.925 -1655.066,116.301ZM-1401.468,161.987L-1553.571,161.987L-1553.571,136.933L-1507.653,136.933L-1507.653,72.57L-1545.371,72.57L-1545.371,47.516L-1460.505,47.516L-1454.059,73.326L-1446.361,73.326C-1444.174,54.68 -1425.657,45.356 -1390.809,45.356C-1370.173,45.356 -1354.355,49.352 -1343.353,57.343C-1332.352,65.335 -1326.852,76.854 -1326.852,91.901L-1382.199,91.901C-1382.199,85.158 -1384.54,80.304 -1389.223,77.34C-1393.906,74.376 -1401.472,72.894 -1411.923,72.894C-1425.484,72.894 -1435.605,76.35 -1442.287,83.261C-1448.966,90.172 -1452.306,99.999 -1452.306,112.743L-1452.306,136.933L-1401.468,136.933L-1401.468,161.987ZM-1091.113,161.987L-1291.184,161.987L-1291.184,134.989L-1210.827,134.989L-1210.827,74.514L-1278.884,74.514L-1278.884,47.516L-1155.48,47.516L-1155.48,134.989L-1091.113,134.989L-1091.113,161.987ZM-1000.303,85.421L-1000.303,161.987L-1055.035,161.987L-1055.035,47.516L-1005.222,47.516L-1002.323,61.771L-997.433,61.771C-994.426,50.828 -983.425,45.356 -964.429,45.356C-953.851,45.356 -945.535,47.408 -939.482,51.512C-935.675,54.092 -933.066,57.512 -931.653,61.771L-926.711,61.771C-925.481,56.659 -921.689,52.646 -915.334,49.73C-908.98,46.814 -900.609,45.356 -890.223,45.356C-875.6,45.356 -864.907,47.48 -858.142,51.728C-851.378,55.975 -847.995,62.851 -847.995,72.354L-847.995,161.987L-902.523,161.987L-902.523,84.449C-902.523,76.53 -906.896,72.57 -915.642,72.57C-925.481,72.57 -930.401,76.854 -930.401,85.421L-930.401,161.987L-971.604,161.987L-971.604,82.289C-971.604,75.81 -975.977,72.57 -984.723,72.57C-995.11,72.57 -1000.303,76.854 -1000.303,85.421ZM-674.006,137.797C-675.066,142.91 -677.784,147.284 -682.158,150.918C-687.488,155.345 -694.97,158.657 -704.605,160.853C-714.239,163.049 -725.753,164.147 -739.145,164.147C-762.241,164.147 -780.212,161.159 -793.058,155.183C-805.904,149.208 -812.327,140.713 -812.327,129.697C-812.327,116.882 -803.922,107.055 -787.113,100.216C-770.304,93.376 -746.457,89.957 -715.572,89.957C-703.682,89.957 -693.399,90.281 -684.721,90.929C-680.204,91.266 -675.661,91.701 -671.089,92.233L-671.089,91.901C-671.089,85.781 -676.043,81.299 -685.951,78.456C-695.858,75.612 -710.584,74.046 -730.126,73.758L-785.678,73.002L-781.578,46.436L-734.226,46.76C-694.868,47.048 -665.622,51.134 -646.49,59.017C-627.358,66.901 -617.791,78.402 -617.791,93.52L-617.791,135.853L-587.658,138.229L-587.658,161.987L-665.554,163.067L-669.068,137.797L-674.006,137.797ZM-671.114,116.301C-678.385,115.487 -685.005,115.003 -690.973,114.849C-697.943,114.669 -705.254,114.579 -712.907,114.579C-741.605,114.579 -755.955,118.898 -755.955,127.538C-755.955,131.425 -753.358,134.395 -748.165,136.447C-742.972,138.499 -735.387,139.525 -725.411,139.525C-713.385,139.525 -703.341,138.337 -695.278,135.961C-687.215,133.585 -681.167,130.561 -677.136,126.89C-673.364,123.455 -671.357,119.925 -671.114,116.301ZM-182.632,139.957L-188.952,139.957C-192.32,147.732 -198.92,153.707 -208.753,157.883C-218.586,162.059 -230.708,164.147 -245.12,164.147C-265.789,164.147 -281.787,160.565 -293.113,153.402C-304.439,146.238 -310.101,136.141 -310.101,123.11L-310.101,47.516L-254.549,47.516L-254.549,115.875C-254.549,122.426 -251.713,127.484 -246.042,131.047C-240.371,134.611 -232.547,136.393 -222.571,136.393C-209.565,136.393 -199.754,133.747 -193.139,128.456C-186.521,123.164 -183.213,114.291 -183.213,101.836L-183.213,47.516L-127.66,47.516L-127.66,135.853L-97.732,138.229L-97.732,161.987L-179.523,163.067L-182.632,139.957ZM-1973.595,121.274L-1973.595,161.987L-2029.147,161.987L-2029.147,0L-1973.595,0L-1973.595,93.52L-1970.315,93.52C-1954.053,93.52 -1940.694,92.027 -1930.24,89.039C-1919.785,86.051 -1911.552,81.191 -1905.538,74.46C-1899.525,67.728 -1895.152,58.747 -1892.419,47.516L-1835.227,47.516C-1841.103,72.282 -1854.359,90.767 -1874.995,102.97C-1876.985,104.146 -1879.046,105.266 -1881.179,106.329L-1821.288,161.987L-1887.089,161.987L-1927.82,119.402C-1937.779,120.65 -1948.528,121.274 -1960.066,121.274L-1973.595,121.274ZM-1185.614,32.073C-1196.136,32.073 -1204.678,30.346 -1211.237,26.89C-1217.797,23.434 -1221.077,18.934 -1221.077,13.391C-1221.077,7.847 -1217.797,3.348 -1211.237,-0.108C-1204.678,-3.564 -1196.136,-5.292 -1185.614,-5.292C-1175.091,-5.292 -1166.55,-3.564 -1159.99,-0.108C-1153.43,3.348 -1150.15,7.847 -1150.15,13.391C-1150.15,18.934 -1153.43,23.434 -1159.99,26.89C-1166.55,30.346 -1175.091,32.073 -1185.614,32.073ZM-476.348,164.147C-492.884,164.147 -507.541,163.877 -520.319,163.337C-533.096,162.797 -544.337,161.987 -554.04,160.907L-547.48,132.937C-530.261,134.089 -515.775,134.953 -504.022,135.529C-492.269,136.105 -483.045,136.393 -476.348,136.393C-457.763,136.393 -444.302,135.727 -435.965,134.395C-427.629,133.063 -423.461,130.921 -423.461,127.97C-423.461,126.242 -424.486,124.874 -426.536,123.866C-428.586,122.858 -431.866,121.994 -436.375,121.274L-507.097,110.475C-521.583,108.243 -532.481,104.841 -539.793,100.27C-547.104,95.698 -550.76,89.561 -550.76,81.857C-550.76,69.546 -540.92,60.385 -521.241,54.374C-501.562,48.362 -471.702,45.356 -431.661,45.356C-422.368,45.356 -412.699,45.536 -402.654,45.896C-392.61,46.256 -381.985,46.796 -370.778,47.516L-376.723,74.622C-389.159,74.046 -400.024,73.65 -409.317,73.434C-418.609,73.218 -426.467,73.11 -432.89,73.11C-454.346,73.11 -469.891,73.74 -479.526,75C-489.16,76.26 -493.977,78.33 -493.977,81.209C-493.977,83.009 -492.987,84.395 -491.005,85.367C-489.024,86.339 -485.915,87.149 -481.678,87.797L-420.796,96.652C-402.074,99.316 -388.1,103.186 -378.876,108.261C-369.651,113.337 -365.039,119.942 -365.039,128.078C-365.039,140.245 -374.195,149.298 -392.507,155.237C-410.82,161.177 -438.767,164.147 -476.348,164.147Z" style="fill:white;"/>
                </g>
                <g transform="matrix(1.085529,0,0,5.682017,-140.200675,-670.99067)">
                    <circle cx="238.395" cy="224.47" r="61.541" style="fill:rgb(184,0,0);"/>
                </g>
                <g transform="matrix(0.968268,-0,-0,4.997738,-113.275364,-544.229509)">
                    <path d="M165.936,211.687C166.969,212.01 167.8,212.87 168.031,214.005L180.946,277.332C181.285,278.992 180.212,280.615 178.551,280.954L164.511,283.817C162.851,284.156 161.228,283.083 160.889,281.422L147.974,218.095C147.71,216.801 148.304,215.529 149.365,214.871C149.298,213.455 149.263,212.073 149.263,210.728C149.263,161.029 189.612,120.681 239.311,120.681C264.15,120.681 286.662,130.738 302.968,147.005L291.918,157.027C277.483,144.819 258.621,137.347 239.311,137.347C198.811,137.347 165.93,170.228 165.93,210.728C165.93,211.045 165.932,211.365 165.936,211.687ZM145.472,217.23L158.966,283.396C159.145,284.273 158.578,285.13 157.701,285.309L150.209,286.837C142.691,288.37 135.343,283.512 133.81,275.994L125.223,233.892C123.69,226.374 128.549,219.026 136.067,217.493L143.559,215.965C144.436,215.786 145.293,216.353 145.472,217.23ZM310.886,214.005C311.224,212.344 312.847,211.271 314.508,211.61L328.548,214.473C330.208,214.811 331.281,216.434 330.943,218.095L318.028,281.422C317.689,283.083 316.066,284.156 314.406,283.817L300.366,280.954C298.705,280.615 297.632,278.992 297.971,277.332L310.886,214.005ZM333.445,217.23C333.624,216.353 334.481,215.786 335.358,215.965L342.85,217.493C350.368,219.026 355.227,226.374 353.694,233.892L345.107,275.994C343.574,283.512 336.226,288.37 328.708,286.837L321.216,285.309C320.339,285.13 319.772,284.273 319.951,283.396L333.445,217.23Z" style="fill:white;"/>
                </g>
                <g transform="matrix(1.214322,0,0,1.769154,33.401839,144.907471)">
                    <path d="M172.418,419.72L172.453,424.87L172.453,425.498C172.453,427.592 172.264,428.639 171.886,428.639C171.721,428.639 171.478,428.408 171.159,427.948C170.84,427.487 170.545,426.817 170.273,425.938C170.001,425.059 169.865,424.075 169.865,422.986C169.865,422.818 169.871,422.651 169.883,422.484C169.895,422.316 169.901,422.19 169.901,422.107C169.971,420.348 170.007,418.422 170.007,416.328L170.007,413.816L169.44,339.576C169.416,338.236 169.357,336.813 169.262,335.305C169.168,333.798 169.038,332.5 168.872,331.411C168.707,330.239 168.624,329.401 168.624,328.899C168.624,328.229 168.754,327.894 169.014,327.894C169.227,327.894 169.546,328.124 169.971,328.585C170.397,329.045 170.952,329.862 171.638,331.034L187.275,328.145L187.523,328.145C187.854,328.145 188.226,328.585 188.64,329.464C189.053,330.343 189.26,331.495 189.26,332.918C189.26,333.421 189.236,333.882 189.189,334.3C189.142,334.719 189.106,335.138 189.083,335.556L188.09,410.299C188.445,411.89 188.699,413.167 188.852,414.13C189.006,415.093 189.083,415.826 189.083,416.328C189.083,416.998 188.976,417.396 188.764,417.522C188.551,417.647 188.279,417.752 187.948,417.836L172.418,419.72ZM186.211,375.628L172.063,377.889L172.347,412.183L185.821,410.675L186.211,375.628ZM186.636,335.808L171.744,338.571L171.993,370.478L186.282,367.966L186.636,335.808ZM215.605,404.018L215.605,427.508C215.605,429.769 215.368,430.9 214.896,430.9C214.683,430.9 214.435,430.649 214.151,430.146C213.844,429.56 213.59,428.932 213.389,428.262C213.188,427.592 213.087,426.754 213.087,425.75C213.087,425.415 213.099,425.121 213.123,424.87C213.194,423.614 213.253,422.337 213.3,421.039C213.347,419.741 213.371,418.422 213.371,417.082L213.371,404.395L209.081,405.023L208.442,405.023C207.804,405.023 207.367,404.604 207.13,403.767C206.941,403.097 206.776,402.238 206.634,401.191C206.492,400.145 206.398,399.286 206.35,398.616C206.327,398.449 206.315,398.198 206.315,397.863C206.315,397.528 206.362,397.36 206.457,397.36C206.528,397.36 206.587,397.402 206.634,397.486C207.107,397.904 207.556,398.114 207.981,398.114C208.1,398.114 208.206,398.093 208.301,398.051C208.395,398.009 208.49,397.988 208.584,397.988L213.371,397.36L213.371,359.047C211.811,368.594 210.198,376.696 208.531,383.354C206.865,390.011 205.299,395.413 203.833,399.558C202.367,403.704 201.132,406.719 200.128,408.603C199.123,410.487 198.514,411.429 198.302,411.429C198.089,411.429 197.983,411.136 197.983,410.55C197.983,409.88 198.172,409.001 198.55,407.912C200.015,404.06 201.54,399.391 203.124,393.906C204.708,388.42 206.279,382.16 207.84,375.126C209.4,368.091 210.853,360.345 212.201,351.887L204.613,353.394C204.4,353.478 204.205,353.52 204.028,353.52L203.549,353.52C203.289,353.52 202.935,353.268 202.486,352.766C202.036,352.264 201.658,350.589 201.351,347.741C201.304,347.239 201.28,346.904 201.28,346.736C201.28,346.15 201.375,345.857 201.564,345.857C201.658,345.857 201.729,345.899 201.776,345.983C201.989,346.15 202.22,346.276 202.468,346.36C202.716,346.443 202.97,346.485 203.23,346.485L203.762,346.485L213.371,344.601L213.371,322.618C213.371,320.524 213.217,318.724 212.91,317.216C212.792,316.546 212.733,316.044 212.733,315.709C212.733,315.123 212.875,314.83 213.158,314.83L213.53,315.018C213.779,315.144 214.062,315.353 214.381,315.646C214.701,315.939 214.984,316.4 215.232,317.028C215.481,317.656 215.605,318.473 215.605,319.477L215.605,344.098L224.363,342.34C224.599,342.256 224.859,342.151 225.143,342.026C225.426,341.9 225.686,341.67 225.923,341.335C226.065,341.167 226.171,341.084 226.242,341.084C226.478,341.084 226.762,341.502 227.093,342.34C227.424,343.177 227.713,344.077 227.961,345.041C228.21,346.004 228.334,346.736 228.334,347.239C228.334,347.741 228.251,348.118 228.086,348.369C227.92,348.621 227.707,348.788 227.447,348.872L216.527,351.007C218.725,361.308 221.036,370.855 223.458,379.648C225.881,388.441 228.582,395.56 231.56,401.003C231.891,401.673 232.057,402.217 232.057,402.636C232.057,402.887 231.933,403.39 231.684,404.143C231.436,404.897 231.153,405.588 230.834,406.216C230.514,406.844 230.248,407.158 230.036,407.158C229.918,407.158 229.805,407.054 229.699,406.844C229.593,406.635 229.48,406.405 229.362,406.153C226.549,399.621 224.026,392.419 221.792,384.547C219.558,376.675 217.496,367.505 215.605,357.037L215.605,396.983L219.434,396.481C219.765,396.397 220.043,396.271 220.267,396.104C220.492,395.936 220.722,395.685 220.959,395.35C221.148,395.183 221.278,395.099 221.349,395.099C221.68,395.099 221.993,395.455 222.288,396.167C222.584,396.879 222.82,397.695 222.998,398.616C223.175,399.537 223.263,400.249 223.263,400.752C223.263,402.092 222.956,402.845 222.342,403.013L215.605,404.018ZM243.226,338.194C243.131,338.194 243.019,338.09 242.889,337.88C242.759,337.671 242.623,337.399 242.481,337.064C241.748,335.221 241.004,333.547 240.247,332.039C239.491,330.532 238.758,329.234 238.049,328.145C237.813,327.726 237.629,327.349 237.499,327.014C237.369,326.68 237.304,326.219 237.304,325.633C237.304,324.795 237.393,323.895 237.57,322.932C237.748,321.969 237.966,321.487 238.226,321.487C238.368,321.487 238.906,322.115 239.84,323.372C240.773,324.628 242.032,326.763 243.616,329.778C244.112,330.783 244.36,331.788 244.36,332.793C244.36,333.63 244.242,334.74 244.006,336.122C243.769,337.504 243.509,338.194 243.226,338.194ZM248.332,379.774L248.012,379.774C247.398,379.774 246.961,379.271 246.701,378.266C246.441,377.261 246.257,376.256 246.151,375.251C246.045,374.247 245.991,373.535 245.991,373.116C245.991,372.697 246.051,372.488 246.169,372.488C246.24,372.488 246.311,372.53 246.381,372.614C246.689,372.948 247.055,373.116 247.481,373.116C247.599,373.116 247.717,373.095 247.835,373.053C247.953,373.011 248.072,372.99 248.19,372.99L251.735,372.362L252.976,354.273L251.062,354.65C250.944,354.734 250.837,354.776 250.743,354.776L250.424,354.776C249.998,354.776 249.697,354.546 249.519,354.085C249.342,353.624 249.159,352.933 248.97,352.012C248.804,351.007 248.663,349.877 248.544,348.621C248.521,348.453 248.509,348.202 248.509,347.867C248.509,347.616 248.556,347.49 248.651,347.49C248.698,347.49 248.739,347.511 248.775,347.553C248.81,347.595 248.852,347.616 248.899,347.616C249.301,347.867 249.691,347.993 250.069,347.993C250.187,347.993 250.317,347.972 250.459,347.93C250.601,347.888 250.743,347.867 250.884,347.867L253.437,347.364L254.324,334.175L250.317,335.054C250.223,335.054 250.128,335.075 250.034,335.117C249.939,335.159 249.856,335.18 249.785,335.18C249.194,335.18 248.751,334.552 248.456,333.295C248.16,332.039 247.942,330.616 247.8,329.024C247.776,328.857 247.764,328.606 247.764,328.271C247.764,327.936 247.823,327.768 247.942,327.768C248.036,327.768 248.119,327.81 248.19,327.894C248.592,328.145 248.993,328.271 249.395,328.271L249.892,328.271L260.919,325.884C261.179,325.8 261.403,325.695 261.593,325.57C261.782,325.444 261.959,325.298 262.124,325.13C262.219,325.046 262.308,324.984 262.39,324.942C262.473,324.9 262.538,324.879 262.585,324.879C262.751,324.879 262.975,325.193 263.259,325.821C263.543,326.449 263.797,327.203 264.021,328.082C264.246,328.962 264.358,329.778 264.358,330.532C264.358,331.537 264.015,332.123 263.33,332.29L256.558,333.672L255.707,346.862L260.812,345.731C260.883,345.731 260.948,345.71 261.007,345.669C261.067,345.627 261.12,345.606 261.167,345.606C261.427,345.606 261.752,346.066 262.142,346.988C262.532,347.909 262.727,348.956 262.727,350.128C262.727,350.631 262.698,351.07 262.638,351.447C262.579,351.824 262.538,352.222 262.514,352.64L261.522,370.729L263.614,370.352C263.874,370.269 264.122,370.164 264.358,370.038C264.595,369.913 264.843,369.766 265.103,369.599C265.197,369.515 265.286,369.452 265.369,369.41C265.451,369.368 265.528,369.347 265.599,369.347C265.859,369.347 266.113,369.703 266.361,370.415C266.61,371.127 266.817,371.923 266.982,372.802C267.147,373.681 267.23,374.372 267.23,374.875C267.23,375.963 266.923,376.591 266.308,376.759L248.332,379.774ZM260.21,352.64L255.21,353.771L254.005,371.985L259.323,371.106L260.21,352.64ZM236.241,349.877C236.028,349.961 235.839,350.002 235.673,350.002L235.212,350.002C234.811,350.002 234.551,349.793 234.432,349.374C233.936,347.867 233.629,346.569 233.511,345.48C233.392,344.392 233.333,343.68 233.333,343.345C233.333,342.842 233.404,342.591 233.546,342.591C233.641,342.591 233.723,342.633 233.794,342.717C234.149,343.052 234.527,343.219 234.929,343.219C235.047,343.219 235.153,343.198 235.248,343.156C235.342,343.114 235.437,343.093 235.532,343.093L244.183,341.335C244.396,341.167 244.632,341 244.892,340.832C245.152,340.665 245.4,340.414 245.637,340.079C245.684,339.995 245.731,339.932 245.779,339.89C245.826,339.848 245.885,339.827 245.956,339.827C246.145,339.827 246.381,340.141 246.665,340.77C246.949,341.398 247.209,342.151 247.445,343.031C247.682,343.91 247.8,344.726 247.8,345.48C247.8,346.569 247.563,347.197 247.091,347.364L236.241,349.877ZM238.475,365.453C238.333,365.537 238.197,365.579 238.067,365.579L237.694,365.579C237.482,365.579 237.328,365.537 237.234,365.453C237.021,365.453 236.855,365.244 236.737,364.825C236.548,364.239 236.335,363.318 236.099,362.062C235.863,360.805 235.744,359.759 235.744,358.921C235.744,358.419 235.803,358.168 235.922,358.168C235.945,358.168 235.969,358.188 235.993,358.23C236.016,358.272 236.04,358.293 236.063,358.293C236.465,358.628 236.903,358.796 237.375,358.796L237.765,358.796L242.588,357.665C243.013,357.498 243.438,357.204 243.864,356.786C243.911,356.702 243.959,356.639 244.006,356.597C244.053,356.555 244.1,356.535 244.148,356.535C244.313,356.535 244.52,356.828 244.768,357.414C245.016,358 245.247,358.712 245.46,359.549C245.672,360.387 245.779,361.182 245.779,361.936C245.779,362.522 245.702,362.983 245.548,363.318C245.395,363.653 245.223,363.862 245.034,363.946L238.475,365.453ZM238.51,381.155L237.482,381.155C237.151,380.988 236.914,380.779 236.773,380.527C236.513,379.69 236.306,378.811 236.152,377.889C235.998,376.968 235.874,376.089 235.78,375.251C235.756,375.084 235.744,374.833 235.744,374.498C235.744,374.079 235.803,373.87 235.922,373.87C235.993,373.87 236.052,373.912 236.099,373.995C236.501,374.33 236.938,374.498 237.411,374.498L237.801,374.498L242.517,373.618C242.729,373.535 242.936,373.43 243.137,373.304C243.338,373.179 243.545,372.948 243.758,372.614C243.899,372.446 244.006,372.362 244.077,372.362C244.289,372.362 244.52,372.697 244.768,373.367C245.016,374.037 245.229,374.812 245.406,375.691C245.584,376.57 245.672,377.261 245.672,377.764C245.672,378.35 245.601,378.811 245.46,379.146C245.318,379.481 245.152,379.69 244.963,379.774L238.51,381.155ZM252.196,421.855L252.303,426.252L252.303,426.629C252.303,428.388 252.102,429.267 251.7,429.267C251.629,429.267 251.44,429.078 251.133,428.702C250.825,428.325 250.53,427.78 250.246,427.069C249.963,426.357 249.821,425.498 249.821,424.493L249.821,423.991C249.821,423.823 249.833,423.614 249.856,423.363C249.927,421.939 249.963,420.474 249.963,418.966C249.963,418.548 249.957,418.087 249.945,417.584C249.933,417.082 249.927,416.621 249.927,416.203L249.537,397.611C249.513,396.02 249.472,394.701 249.413,393.654C249.354,392.608 249.265,391.582 249.147,390.577C249.029,389.572 248.97,388.902 248.97,388.567C248.97,388.064 249.076,387.813 249.289,387.813C249.643,387.813 250.447,388.651 251.7,390.326L261.096,388.692L261.451,388.692C261.829,388.692 262.201,389.153 262.568,390.074C262.934,390.995 263.117,392.042 263.117,393.215C263.117,393.801 263.076,394.324 262.993,394.785C262.91,395.246 262.857,395.727 262.834,396.23L262.018,414.193C262.349,415.7 262.579,416.894 262.709,417.773C262.839,418.652 262.904,419.301 262.904,419.72C262.904,420.306 262.816,420.641 262.638,420.725C262.461,420.809 262.231,420.892 261.947,420.976L252.196,421.855ZM260.493,395.601L251.7,397.109L252.055,415.072L259.855,414.318L260.493,395.601ZM238.935,422.232L238.971,423.865L238.971,424.242C238.971,426.085 238.746,427.006 238.297,427.006C238.274,427.006 238.126,426.901 237.854,426.692C237.582,426.482 237.31,426.043 237.038,425.373C236.767,424.703 236.631,423.698 236.631,422.358L236.631,421.604C236.654,420.767 236.672,419.95 236.684,419.155C236.696,418.359 236.702,417.584 236.702,416.831L236.702,415.323L236.347,398.993C236.276,396.146 236.099,393.843 235.815,392.084C235.626,390.995 235.532,390.2 235.532,389.697C235.532,389.195 235.638,388.944 235.851,388.944C236.04,388.944 236.341,389.153 236.755,389.572C237.169,389.991 237.73,390.66 238.439,391.582L243.97,390.577L244.289,390.577C244.549,390.577 244.875,391.016 245.265,391.896C245.655,392.775 245.85,393.801 245.85,394.973C245.85,395.392 245.82,395.79 245.761,396.167C245.702,396.544 245.66,396.941 245.637,397.36L245.07,414.695C245.613,417.375 245.885,419.176 245.885,420.097C245.885,420.683 245.79,421.039 245.601,421.165C245.412,421.29 245.188,421.395 244.928,421.479L238.935,422.232ZM243.403,397.611L238.439,398.491L238.794,415.449L243.013,415.072L243.403,397.611ZM298.539,418.966C298.231,418.799 297.711,418.631 296.979,418.464C296.246,418.296 295.549,418.213 294.887,418.213L293.433,418.213C291.424,418.213 289.675,418.317 288.185,418.527C286.696,418.736 285.727,419.05 285.278,419.469L285.171,419.469C284.982,419.469 284.776,419.113 284.551,418.401C284.326,417.689 284.137,416.873 283.984,415.951C283.83,415.03 283.753,414.277 283.753,413.69C283.753,413.104 283.783,412.518 283.842,411.932C283.901,411.345 283.93,410.55 283.93,409.545L283.93,331.034C283.93,330.197 284.172,329.778 284.656,329.778C285.047,329.778 285.467,330.092 285.916,330.72C286.365,331.348 286.59,332.207 286.59,333.295L286.59,410.927C287.32,410.759 288.204,410.634 289.241,410.55C290.277,410.466 291.308,410.403 292.333,410.361C293.359,410.32 294.201,410.299 294.861,410.299L296.504,410.299C297.058,410.299 297.488,410.257 297.794,410.173L297.83,410.173C298.137,410.173 298.403,410.969 298.627,412.56C298.852,414.151 298.964,415.575 298.964,416.831C298.964,418.254 298.834,418.966 298.574,418.966L298.539,418.966ZM306.02,338.446C306.02,340.037 305.867,341.398 305.559,342.528C305.252,343.659 304.826,344.224 304.283,344.224C303.834,344.224 303.426,343.408 303.06,341.774C302.693,340.141 302.51,338.446 302.51,336.687C302.51,335.012 302.658,333.588 302.953,332.416C303.249,331.244 303.692,330.657 304.283,330.657C304.708,330.657 305.104,331.495 305.471,333.17C305.837,334.845 306.02,336.603 306.02,338.446ZM303.006,416.203L303.006,358.67C303.006,357.916 303.225,357.539 303.662,357.539C304.053,357.539 304.467,357.853 304.904,358.482C305.341,359.11 305.559,359.926 305.559,360.931L305.559,418.464C305.559,419.217 305.341,419.594 304.904,419.594C304.536,419.594 304.128,419.28 303.679,418.652C303.231,418.024 303.006,417.208 303.006,416.203ZM315.877,387.939C314.554,386.85 313.561,385.154 312.899,382.851C312.237,380.548 311.906,377.471 311.906,373.618C311.906,370.352 312.202,367.505 312.793,365.076C313.383,362.648 314.175,360.743 315.168,359.361C316.161,357.979 317.236,357.288 318.395,357.288C319.766,357.288 320.889,357.979 321.763,359.361C322.638,360.743 323.406,362.69 324.068,365.202C324.115,365.37 324.139,365.746 324.139,366.333C324.139,367.421 324.015,368.636 323.766,369.976C323.518,371.315 323.264,371.985 323.004,371.985C322.862,371.985 322.673,371.441 322.437,370.352C322.082,368.426 321.639,367.024 321.107,366.144C320.575,365.265 320.061,364.721 319.565,364.511C319.068,364.302 318.678,364.197 318.395,364.197C317.024,364.197 315.984,365.139 315.275,367.024C314.565,368.908 314.211,371.19 314.211,373.87C314.211,375.545 314.37,376.968 314.689,378.141C315.009,379.313 315.653,380.318 316.622,381.155L320.026,384.045C321.562,385.301 322.774,387.353 323.66,390.2C324.547,393.047 324.99,397.067 324.99,402.259C324.99,405.609 324.712,408.666 324.157,411.429C323.601,414.193 322.815,416.412 321.799,418.087C320.782,419.762 319.577,420.599 318.182,420.599C316.811,420.599 315.67,420.013 314.76,418.841C313.85,417.668 313.123,416.286 312.58,414.695C312.036,413.104 311.646,411.639 311.41,410.299C311.173,408.959 311.055,408.079 311.055,407.661C311.055,406.405 311.226,405.086 311.569,403.704C311.912,402.322 312.213,401.631 312.473,401.631C312.639,401.631 312.757,401.924 312.828,402.51C313.017,404.185 313.283,405.86 313.626,407.535C313.969,409.21 314.494,410.592 315.204,411.68C315.913,412.769 316.906,413.313 318.182,413.313C319.624,413.313 320.729,412.225 321.497,410.047C322.265,407.87 322.65,405.358 322.65,402.51C322.65,399.579 322.437,397.193 322.011,395.35C321.586,393.508 320.723,392.042 319.423,390.954L315.877,387.939ZM331.053,365.076L330.876,365.076C330.356,365.076 329.954,365.16 329.67,365.328C329.386,365.495 329.067,365.579 328.713,365.579L328.677,365.579C328.37,365.579 328.11,364.951 327.897,363.695C327.684,362.439 327.578,361.266 327.578,360.177C327.578,359.005 327.707,358.419 327.964,358.419L331.017,358.419L331.017,338.571C331.017,338.153 331.085,337.838 331.22,337.629C331.354,337.42 331.512,337.315 331.691,337.315C332.062,337.315 332.456,337.627 332.873,338.251C333.291,338.875 333.499,339.729 333.499,340.811L333.499,357.916L334.483,357.916C334.904,357.916 335.396,357.816 335.958,357.616C336.52,357.414 336.918,357.263 337.152,357.163L337.187,357.163C337.494,357.163 337.76,357.802 337.985,359.08C338.209,360.357 338.322,361.549 338.322,362.656C338.322,363.935 338.18,364.574 337.896,364.574L333.464,364.574L333.464,404.752C333.464,408.11 333.547,410.25 333.712,411.174C333.878,412.098 334.22,412.56 334.74,412.56C335.142,412.56 335.645,412.099 336.247,411.178C336.85,410.257 337.447,409.001 338.038,407.409C338.44,406.321 338.759,405.776 338.995,405.776C339.232,405.776 339.35,406.237 339.35,407.158C339.35,407.912 339.202,409.022 338.907,410.487C338.611,411.953 338.221,413.46 337.737,415.009C337.252,416.559 336.72,417.878 336.141,418.966C335.562,420.055 334.989,420.599 334.421,420.599C333.192,420.599 332.323,419.259 331.815,416.58C331.307,413.9 331.053,409.88 331.053,404.52L331.053,365.076ZM344.314,393.717L344.314,394.973C344.314,400.417 344.71,404.813 345.502,408.163C346.294,411.513 347.28,413.188 348.462,413.188C349.975,413.188 351.364,412.329 352.629,410.613C353.893,408.896 354.998,406.237 355.944,402.636C356.109,401.966 356.263,401.485 356.405,401.191C356.547,400.898 356.665,400.752 356.759,400.752C356.996,400.752 357.114,401.254 357.114,402.259C357.114,403.013 356.942,404.353 356.6,406.279C356.257,408.205 355.731,410.278 355.022,412.497C354.313,414.716 353.414,416.621 352.327,418.213C351.24,419.804 349.952,420.599 348.462,420.599C347.257,420.599 346.164,419.532 345.183,417.396C344.202,415.261 343.427,412.183 342.86,408.163C342.293,404.143 342.009,399.37 342.009,393.843L342.009,392.084C341.796,391.498 341.619,390.828 341.477,390.074C341.335,389.321 341.265,388.651 341.265,388.064C341.265,386.976 341.489,386.431 341.938,386.431C341.962,386.431 342.015,386.41 342.098,386.369C342.181,386.327 342.234,386.306 342.257,386.306C342.423,383.291 342.76,380.109 343.268,376.759C343.776,373.409 344.42,370.248 345.2,367.275C345.98,364.302 346.873,361.894 347.877,360.052C348.882,358.209 349.963,357.288 351.122,357.288C352.587,357.288 353.751,358.188 354.614,359.989C355.477,361.789 356.092,364.092 356.458,366.898C356.824,369.703 357.007,372.614 357.007,375.628C357.007,378.476 356.942,380.737 356.812,382.412C356.682,384.087 356.381,385.447 355.908,386.494C355.436,387.541 354.667,388.651 353.604,389.823C352.54,390.995 351.269,391.938 349.792,392.649C348.315,393.361 346.642,393.717 344.775,393.717L344.314,393.717ZM345.307,386.683C347.056,386.683 348.521,386.327 349.703,385.615C350.885,384.903 351.866,384.17 352.646,383.417C353.497,382.495 354.047,381.49 354.295,380.402C354.543,379.313 354.667,377.68 354.667,375.503C354.667,368.217 353.474,364.574 351.086,364.574C350.212,364.574 349.408,365.286 348.675,366.709C347.942,368.133 347.298,369.976 346.743,372.237C346.187,374.498 345.726,376.905 345.36,379.46C344.993,382.014 344.739,384.422 344.598,386.683L345.307,386.683ZM374.24,416.203C374.263,415.533 374.275,414.402 374.275,412.811L374.275,381.532C374.275,376.591 374.086,372.634 373.708,369.661C373.33,366.689 372.549,365.202 371.368,365.202C370.564,365.202 369.754,365.746 368.939,366.835C368.123,367.924 367.385,369.724 366.723,372.237C366.061,374.749 365.553,378.099 365.198,382.286C365.033,384.38 364.908,386.829 364.826,389.635C364.743,392.44 364.702,395.225 364.702,397.988L364.702,418.464C364.702,419.301 364.483,419.72 364.047,419.72C363.679,419.72 363.289,419.406 362.875,418.778C362.462,418.15 362.255,417.291 362.255,416.203L362.255,359.172C362.255,358.335 362.473,357.916 362.91,357.916C363.277,357.916 363.668,358.23 364.081,358.858C364.495,359.487 364.702,360.345 364.702,361.434L364.702,371.106C365.458,366.668 366.445,363.276 367.662,360.931C368.88,358.586 370.138,357.414 371.438,357.414C372.573,357.414 373.489,358.147 374.186,359.612C374.884,361.078 375.416,362.983 375.782,365.328C376.148,367.673 376.391,370.227 376.509,372.99C376.627,375.754 376.686,378.434 376.686,381.03L376.686,418.464C376.686,419.301 376.468,419.72 376.031,419.72C375.664,419.72 375.273,419.406 374.86,418.778C374.446,418.15 374.24,417.333 374.24,416.328L374.24,416.203ZM386.295,338.446C386.295,340.037 386.141,341.398 385.834,342.528C385.527,343.659 385.101,344.224 384.558,344.224C384.108,344.224 383.701,343.408 383.334,341.774C382.968,340.141 382.785,338.446 382.785,336.687C382.785,335.012 382.932,333.588 383.228,332.416C383.523,331.244 383.967,330.657 384.558,330.657C384.983,330.657 385.379,331.495 385.745,333.17C386.112,334.845 386.295,336.603 386.295,338.446ZM383.281,416.203L383.281,358.67C383.281,357.916 383.5,357.539 383.937,357.539C384.328,357.539 384.742,357.853 385.179,358.482C385.616,359.11 385.834,359.926 385.834,360.931L385.834,418.464C385.834,419.217 385.616,419.594 385.179,419.594C384.811,419.594 384.402,419.28 383.954,418.652C383.505,418.024 383.281,417.208 383.281,416.203ZM404.414,416.203C404.437,415.533 404.449,414.402 404.449,412.811L404.449,381.532C404.449,376.591 404.26,372.634 403.882,369.661C403.504,366.689 402.723,365.202 401.542,365.202C400.738,365.202 399.928,365.746 399.113,366.835C398.297,367.924 397.559,369.724 396.897,372.237C396.235,374.749 395.727,378.099 395.372,382.286C395.207,384.38 395.082,386.829 395,389.635C394.917,392.44 394.876,395.225 394.876,397.988L394.876,418.464C394.876,419.301 394.657,419.72 394.221,419.72C393.853,419.72 393.463,419.406 393.049,418.778C392.636,418.15 392.429,417.291 392.429,416.203L392.429,359.172C392.429,358.335 392.647,357.916 393.084,357.916C393.451,357.916 393.842,358.23 394.255,358.858C394.669,359.487 394.876,360.345 394.876,361.434L394.876,371.106C395.632,366.668 396.619,363.276 397.836,360.931C399.054,358.586 400.312,357.414 401.612,357.414C402.747,357.414 403.663,358.147 404.36,359.612C405.058,361.078 405.59,362.983 405.956,365.328C406.322,367.673 406.565,370.227 406.683,372.99C406.801,375.754 406.86,378.434 406.86,381.03L406.86,418.464C406.86,419.301 406.642,419.72 406.205,419.72C405.838,419.72 405.447,419.406 405.034,418.778C404.62,418.15 404.414,417.333 404.414,416.328L404.414,416.203ZM425.12,403.515C424.246,408.54 423.194,412.12 421.965,414.256C420.736,416.391 419.495,417.459 418.242,417.459C416.374,417.459 414.885,415.281 413.774,410.927C412.663,406.572 412.108,400.207 412.108,391.833C412.108,387.562 412.332,383.375 412.781,379.271C413.231,375.168 413.851,371.462 414.643,368.154C415.435,364.846 416.345,362.208 417.373,360.24C418.401,358.272 419.495,357.288 420.653,357.288C421.622,357.288 422.503,357.937 423.294,359.235C424.086,360.533 424.707,362.564 425.156,365.328C425.156,363.737 425.138,362.439 425.103,361.434C425.067,360.429 425.05,359.507 425.05,358.67C425.05,357.833 425.274,357.414 425.723,357.414C426.101,357.414 426.503,357.728 426.929,358.356C427.354,358.984 427.567,359.801 427.567,360.805L427.567,360.931C427.543,362.522 427.514,364.448 427.478,366.709C427.443,368.971 427.425,371.19 427.425,373.367L427.425,412.057C427.425,418.171 427.023,423.321 426.22,427.508C425.416,431.695 424.358,434.878 423.046,437.055C421.734,439.232 420.287,440.321 418.703,440.321C417.072,440.321 415.766,439.337 414.785,437.369C413.804,435.401 412.994,432.617 412.356,429.016C412.285,428.597 412.25,428.22 412.25,427.885C412.25,426.629 412.433,425.31 412.799,423.928C413.166,422.546 413.502,421.855 413.81,421.855C414.046,421.855 414.212,422.274 414.306,423.112C414.732,426.545 415.269,428.995 415.919,430.46C416.569,431.926 417.497,432.658 418.703,432.658C419.932,432.658 421.025,431.821 421.983,430.146C422.94,428.471 423.702,426.085 424.27,422.986C424.837,419.887 425.12,416.203 425.12,411.932L425.12,403.515ZM425.12,369.347C424.932,370.269 424.708,370.729 424.449,370.729C424.261,370.729 424.108,370.478 423.99,369.976C423.636,368.301 423.153,367.003 422.54,366.081C421.928,365.16 421.304,364.7 420.668,364.7C419.796,364.7 418.989,365.474 418.247,367.024C417.505,368.573 416.857,370.666 416.303,373.304C415.75,375.942 415.314,378.852 414.996,382.035C414.678,385.217 414.519,388.441 414.519,391.707C414.519,398.323 414.833,403.013 415.461,405.776C416.09,408.54 417.021,409.922 418.255,409.922C419.108,409.922 420.003,409.168 420.94,407.661C421.877,406.153 422.719,403.934 423.466,401.003C424.213,398.072 424.729,394.429 425.014,390.074C425.085,389.153 425.12,387.562 425.12,385.301L425.12,369.347Z" style="fill:white;"/>
                </g>
            </g>
        </g>
    </g>
    <g id="Mesa-de-trabajo2" serif:id="Mesa de trabajo2" transform="matrix(1,0,0,1,0,-0.668774)">
        <rect x="0" y="270.669" width="1161.271" height="244.713" style="fill:none;"/>
        <g id="logo-junto1" serif:id="logo junto" transform="matrix(1.161271,0,0,0.224986,0,270.668774)">
            <g transform="matrix(1.27988,0,0,1.934098,-82.654682,-437.250139)">
                <g transform="matrix(0.570954,0,0,2.298085,38.106425,0)">
                    <path d="M374.093,239.872L1262.929,239.872"/>
                </g>
                <g transform="matrix(0.570954,0,0,2.298085,38.106425,0)">
                    <path d="M374.093,244.039C371.383,244.039 369.183,242.172 369.183,239.872C369.183,237.573 371.383,235.706 374.093,235.706L1262.929,235.706C1265.639,235.706 1267.839,237.573 1267.839,239.872C1267.839,242.172 1265.639,244.039 1262.929,244.039L374.093,244.039ZM1400.863,222.229C1400.863,220.504 1402.513,219.104 1404.546,219.104C1406.578,219.104 1408.228,220.504 1408.228,222.229L1408.228,257.516C1408.228,259.241 1406.578,260.641 1404.546,260.641C1402.513,260.641 1400.863,259.241 1400.863,257.516L1400.863,222.229ZM1387.9,226.433C1387.9,224.708 1389.551,223.308 1391.583,223.308C1393.615,223.308 1395.266,224.708 1395.266,226.433L1395.266,253.312C1395.266,255.037 1393.615,256.437 1391.583,256.437C1389.551,256.437 1387.9,255.037 1387.9,253.312L1387.9,226.433ZM1374.938,219.005C1374.938,217.281 1376.588,215.88 1378.621,215.88C1380.653,215.88 1382.303,217.281 1382.303,219.005L1382.303,260.739C1382.303,262.464 1380.653,263.864 1378.621,263.864C1376.588,263.864 1374.938,262.464 1374.938,260.739L1374.938,219.005ZM1361.975,226.433C1361.975,224.708 1363.626,223.308 1365.658,223.308C1367.69,223.308 1369.341,224.708 1369.341,226.433L1369.341,253.312C1369.341,255.037 1367.69,256.437 1365.658,256.437C1363.626,256.437 1361.975,255.037 1361.975,253.312L1361.975,226.433ZM1349.013,232.038C1349.013,230.313 1350.663,228.913 1352.696,228.913C1354.728,228.913 1356.378,230.313 1356.378,232.038L1356.378,247.707C1356.378,249.431 1354.728,250.832 1352.696,250.832C1350.663,250.832 1349.013,249.431 1349.013,247.707L1349.013,232.038ZM1336.05,220.407C1336.05,218.682 1337.701,217.282 1339.733,217.282C1341.765,217.282 1343.416,218.682 1343.416,220.407L1343.416,259.338C1343.416,261.063 1341.765,262.463 1339.733,262.463C1337.701,262.463 1336.05,261.063 1336.05,259.338L1336.05,220.407ZM1323.088,217.604C1323.088,215.879 1324.738,214.479 1326.77,214.479C1328.803,214.479 1330.453,215.879 1330.453,217.604L1330.453,262.14C1330.453,263.865 1328.803,265.265 1326.77,265.265C1324.738,265.265 1323.088,263.865 1323.088,262.14L1323.088,217.604ZM1310.125,226.433C1310.125,224.708 1311.776,223.308 1313.808,223.308C1315.84,223.308 1317.491,224.708 1317.491,226.433L1317.491,253.312C1317.491,255.037 1315.84,256.437 1313.808,256.437C1311.776,256.437 1310.125,255.037 1310.125,253.312L1310.125,226.433ZM1297.163,232.038C1297.163,230.313 1298.813,228.913 1300.845,228.913C1302.878,228.913 1304.528,230.313 1304.528,232.038L1304.528,247.707C1304.528,249.431 1302.878,250.832 1300.845,250.832C1298.813,250.832 1297.163,249.431 1297.163,247.707L1297.163,232.038ZM1284.2,228.815C1284.2,227.09 1285.851,225.69 1287.883,225.69C1289.915,225.69 1291.566,227.09 1291.566,228.815L1291.566,250.93C1291.566,252.654 1289.915,254.055 1287.883,254.055C1285.851,254.055 1284.2,252.654 1284.2,250.93L1284.2,228.815ZM1271.238,233.72C1271.238,231.995 1272.888,230.595 1274.92,230.595C1276.953,230.595 1278.603,231.995 1278.603,233.72L1278.603,246.025C1278.603,247.75 1276.953,249.15 1274.92,249.15C1272.888,249.15 1271.238,247.75 1271.238,246.025L1271.238,233.72Z" style="fill:rgb(184,0,0);"/>
                </g>
            </g>
            <g transform="matrix(1.085529,0,0,5.682017,-140.200675,-670.99067)">
                <circle cx="238.395" cy="224.47" r="61.541" style="fill:rgb(184,0,0);"/>
            </g>
            <g transform="matrix(1.439124,0,0,2.17474,-113.275364,-544.229509)">
                <path d="M99.684,497.024C99.551,492.28 99.483,487.72 99.483,483.365C99.483,367.187 127.098,272.864 161.112,272.864C195.126,272.864 222.741,367.187 222.741,483.365C222.741,487.72 222.672,492.28 222.54,497.024C222.699,498.297 222.751,499.742 222.664,501.201L213.975,646.732C213.747,650.548 212.655,653.014 211.538,652.236L202.091,645.656C200.974,644.878 200.252,641.148 200.48,637.332L209.169,491.801C209.3,489.611 209.715,487.866 210.257,486.923C210.269,485.721 210.275,484.535 210.275,483.365C210.275,406.211 195.008,341.14 174.238,321.505C169.938,317.678 165.493,315.636 161.012,315.636C154.546,315.636 148.369,319.891 142.707,327.625C124.68,352.53 111.949,412.909 111.949,483.365C111.949,484.535 111.955,485.721 111.967,486.923C112.508,487.866 112.924,489.611 113.054,491.801L121.744,637.332C121.972,641.148 121.249,644.878 120.132,645.656L110.686,652.236C109.569,653.014 108.477,650.548 108.249,646.732L99.56,501.201C99.473,499.742 99.524,498.297 99.684,497.024ZM97.876,499.213L106.955,651.268C107.075,653.284 106.694,655.254 106.104,655.665L101.063,659.176C96.005,662.7 91.061,651.534 90.029,634.257L84.252,537.504C83.221,520.227 86.49,503.34 91.548,499.817L96.589,496.306C97.179,495.895 97.756,497.197 97.876,499.213ZM224.348,499.213C224.468,497.197 225.045,495.895 225.635,496.306L230.676,499.817C235.734,503.34 239.003,520.227 237.971,537.504L232.194,634.257C231.163,651.534 226.219,662.7 221.16,659.176L216.12,655.665C215.53,655.254 215.148,653.284 215.269,651.268L224.348,499.213Z" style="fill:white;"/>
            </g>
            <g transform="matrix(1.214322,0,0,1.769154,33.401839,144.907471)">
                <path d="M172.418,419.72L172.453,424.87L172.453,425.498C172.453,427.592 172.264,428.639 171.886,428.639C171.721,428.639 171.478,428.408 171.159,427.948C170.84,427.487 170.545,426.817 170.273,425.938C170.001,425.059 169.865,424.075 169.865,422.986C169.865,422.818 169.871,422.651 169.883,422.484C169.895,422.316 169.901,422.19 169.901,422.107C169.971,420.348 170.007,418.422 170.007,416.328L170.007,413.816L169.44,339.576C169.416,338.236 169.357,336.813 169.262,335.305C169.168,333.798 169.038,332.5 168.872,331.411C168.707,330.239 168.624,329.401 168.624,328.899C168.624,328.229 168.754,327.894 169.014,327.894C169.227,327.894 169.546,328.124 169.971,328.585C170.397,329.045 170.952,329.862 171.638,331.034L187.275,328.145L187.523,328.145C187.854,328.145 188.226,328.585 188.64,329.464C189.053,330.343 189.26,331.495 189.26,332.918C189.26,333.421 189.236,333.882 189.189,334.3C189.142,334.719 189.106,335.138 189.083,335.556L188.09,410.299C188.445,411.89 188.699,413.167 188.852,414.13C189.006,415.093 189.083,415.826 189.083,416.328C189.083,416.998 188.976,417.396 188.764,417.522C188.551,417.647 188.279,417.752 187.948,417.836L172.418,419.72ZM186.211,375.628L172.063,377.889L172.347,412.183L185.821,410.675L186.211,375.628ZM186.636,335.808L171.744,338.571L171.993,370.478L186.282,367.966L186.636,335.808ZM215.605,404.018L215.605,427.508C215.605,429.769 215.368,430.9 214.896,430.9C214.683,430.9 214.435,430.649 214.151,430.146C213.844,429.56 213.59,428.932 213.389,428.262C213.188,427.592 213.087,426.754 213.087,425.75C213.087,425.415 213.099,425.121 213.123,424.87C213.194,423.614 213.253,422.337 213.3,421.039C213.347,419.741 213.371,418.422 213.371,417.082L213.371,404.395L209.081,405.023L208.442,405.023C207.804,405.023 207.367,404.604 207.13,403.767C206.941,403.097 206.776,402.238 206.634,401.191C206.492,400.145 206.398,399.286 206.35,398.616C206.327,398.449 206.315,398.198 206.315,397.863C206.315,397.528 206.362,397.36 206.457,397.36C206.528,397.36 206.587,397.402 206.634,397.486C207.107,397.904 207.556,398.114 207.981,398.114C208.1,398.114 208.206,398.093 208.301,398.051C208.395,398.009 208.49,397.988 208.584,397.988L213.371,397.36L213.371,359.047C211.811,368.594 210.198,376.696 208.531,383.354C206.865,390.011 205.299,395.413 203.833,399.558C202.367,403.704 201.132,406.719 200.128,408.603C199.123,410.487 198.514,411.429 198.302,411.429C198.089,411.429 197.983,411.136 197.983,410.55C197.983,409.88 198.172,409.001 198.55,407.912C200.015,404.06 201.54,399.391 203.124,393.906C204.708,388.42 206.279,382.16 207.84,375.126C209.4,368.091 210.853,360.345 212.201,351.887L204.613,353.394C204.4,353.478 204.205,353.52 204.028,353.52L203.549,353.52C203.289,353.52 202.935,353.268 202.486,352.766C202.036,352.264 201.658,350.589 201.351,347.741C201.304,347.239 201.28,346.904 201.28,346.736C201.28,346.15 201.375,345.857 201.564,345.857C201.658,345.857 201.729,345.899 201.776,345.983C201.989,346.15 202.22,346.276 202.468,346.36C202.716,346.443 202.97,346.485 203.23,346.485L203.762,346.485L213.371,344.601L213.371,322.618C213.371,320.524 213.217,318.724 212.91,317.216C212.792,316.546 212.733,316.044 212.733,315.709C212.733,315.123 212.875,314.83 213.158,314.83L213.53,315.018C213.779,315.144 214.062,315.353 214.381,315.646C214.701,315.939 214.984,316.4 215.232,317.028C215.481,317.656 215.605,318.473 215.605,319.477L215.605,344.098L224.363,342.34C224.599,342.256 224.859,342.151 225.143,342.026C225.426,341.9 225.686,341.67 225.923,341.335C226.065,341.167 226.171,341.084 226.242,341.084C226.478,341.084 226.762,341.502 227.093,342.34C227.424,343.177 227.713,344.077 227.961,345.041C228.21,346.004 228.334,346.736 228.334,347.239C228.334,347.741 228.251,348.118 228.086,348.369C227.92,348.621 227.707,348.788 227.447,348.872L216.527,351.007C218.725,361.308 221.036,370.855 223.458,379.648C225.881,388.441 228.582,395.56 231.56,401.003C231.891,401.673 232.057,402.217 232.057,402.636C232.057,402.887 231.933,403.39 231.684,404.143C231.436,404.897 231.153,405.588 230.834,406.216C230.514,406.844 230.248,407.158 230.036,407.158C229.918,407.158 229.805,407.054 229.699,406.844C229.593,406.635 229.48,406.405 229.362,406.153C226.549,399.621 224.026,392.419 221.792,384.547C219.558,376.675 217.496,367.505 215.605,357.037L215.605,396.983L219.434,396.481C219.765,396.397 220.043,396.271 220.267,396.104C220.492,395.936 220.722,395.685 220.959,395.35C221.148,395.183 221.278,395.099 221.349,395.099C221.68,395.099 221.993,395.455 222.288,396.167C222.584,396.879 222.82,397.695 222.998,398.616C223.175,399.537 223.263,400.249 223.263,400.752C223.263,402.092 222.956,402.845 222.342,403.013L215.605,404.018ZM243.226,338.194C243.131,338.194 243.019,338.09 242.889,337.88C242.759,337.671 242.623,337.399 242.481,337.064C241.748,335.221 241.004,333.547 240.247,332.039C239.491,330.532 238.758,329.234 238.049,328.145C237.813,327.726 237.629,327.349 237.499,327.014C237.369,326.68 237.304,326.219 237.304,325.633C237.304,324.795 237.393,323.895 237.57,322.932C237.748,321.969 237.966,321.487 238.226,321.487C238.368,321.487 238.906,322.115 239.84,323.372C240.773,324.628 242.032,326.763 243.616,329.778C244.112,330.783 244.36,331.788 244.36,332.793C244.36,333.63 244.242,334.74 244.006,336.122C243.769,337.504 243.509,338.194 243.226,338.194ZM248.332,379.774L248.012,379.774C247.398,379.774 246.961,379.271 246.701,378.266C246.441,377.261 246.257,376.256 246.151,375.251C246.045,374.247 245.991,373.535 245.991,373.116C245.991,372.697 246.051,372.488 246.169,372.488C246.24,372.488 246.311,372.53 246.381,372.614C246.689,372.948 247.055,373.116 247.481,373.116C247.599,373.116 247.717,373.095 247.835,373.053C247.953,373.011 248.072,372.99 248.19,372.99L251.735,372.362L252.976,354.273L251.062,354.65C250.944,354.734 250.837,354.776 250.743,354.776L250.424,354.776C249.998,354.776 249.697,354.546 249.519,354.085C249.342,353.624 249.159,352.933 248.97,352.012C248.804,351.007 248.663,349.877 248.544,348.621C248.521,348.453 248.509,348.202 248.509,347.867C248.509,347.616 248.556,347.49 248.651,347.49C248.698,347.49 248.739,347.511 248.775,347.553C248.81,347.595 248.852,347.616 248.899,347.616C249.301,347.867 249.691,347.993 250.069,347.993C250.187,347.993 250.317,347.972 250.459,347.93C250.601,347.888 250.743,347.867 250.884,347.867L253.437,347.364L254.324,334.175L250.317,335.054C250.223,335.054 250.128,335.075 250.034,335.117C249.939,335.159 249.856,335.18 249.785,335.18C249.194,335.18 248.751,334.552 248.456,333.295C248.16,332.039 247.942,330.616 247.8,329.024C247.776,328.857 247.764,328.606 247.764,328.271C247.764,327.936 247.823,327.768 247.942,327.768C248.036,327.768 248.119,327.81 248.19,327.894C248.592,328.145 248.993,328.271 249.395,328.271L249.892,328.271L260.919,325.884C261.179,325.8 261.403,325.695 261.593,325.57C261.782,325.444 261.959,325.298 262.124,325.13C262.219,325.046 262.308,324.984 262.39,324.942C262.473,324.9 262.538,324.879 262.585,324.879C262.751,324.879 262.975,325.193 263.259,325.821C263.543,326.449 263.797,327.203 264.021,328.082C264.246,328.962 264.358,329.778 264.358,330.532C264.358,331.537 264.015,332.123 263.33,332.29L256.558,333.672L255.707,346.862L260.812,345.731C260.883,345.731 260.948,345.71 261.007,345.669C261.067,345.627 261.12,345.606 261.167,345.606C261.427,345.606 261.752,346.066 262.142,346.988C262.532,347.909 262.727,348.956 262.727,350.128C262.727,350.631 262.698,351.07 262.638,351.447C262.579,351.824 262.538,352.222 262.514,352.64L261.522,370.729L263.614,370.352C263.874,370.269 264.122,370.164 264.358,370.038C264.595,369.913 264.843,369.766 265.103,369.599C265.197,369.515 265.286,369.452 265.369,369.41C265.451,369.368 265.528,369.347 265.599,369.347C265.859,369.347 266.113,369.703 266.361,370.415C266.61,371.127 266.817,371.923 266.982,372.802C267.147,373.681 267.23,374.372 267.23,374.875C267.23,375.963 266.923,376.591 266.308,376.759L248.332,379.774ZM260.21,352.64L255.21,353.771L254.005,371.985L259.323,371.106L260.21,352.64ZM236.241,349.877C236.028,349.961 235.839,350.002 235.673,350.002L235.212,350.002C234.811,350.002 234.551,349.793 234.432,349.374C233.936,347.867 233.629,346.569 233.511,345.48C233.392,344.392 233.333,343.68 233.333,343.345C233.333,342.842 233.404,342.591 233.546,342.591C233.641,342.591 233.723,342.633 233.794,342.717C234.149,343.052 234.527,343.219 234.929,343.219C235.047,343.219 235.153,343.198 235.248,343.156C235.342,343.114 235.437,343.093 235.532,343.093L244.183,341.335C244.396,341.167 244.632,341 244.892,340.832C245.152,340.665 245.4,340.414 245.637,340.079C245.684,339.995 245.731,339.932 245.779,339.89C245.826,339.848 245.885,339.827 245.956,339.827C246.145,339.827 246.381,340.141 246.665,340.77C246.949,341.398 247.209,342.151 247.445,343.031C247.682,343.91 247.8,344.726 247.8,345.48C247.8,346.569 247.563,347.197 247.091,347.364L236.241,349.877ZM238.475,365.453C238.333,365.537 238.197,365.579 238.067,365.579L237.694,365.579C237.482,365.579 237.328,365.537 237.234,365.453C237.021,365.453 236.855,365.244 236.737,364.825C236.548,364.239 236.335,363.318 236.099,362.062C235.863,360.805 235.744,359.759 235.744,358.921C235.744,358.419 235.803,358.168 235.922,358.168C235.945,358.168 235.969,358.188 235.993,358.23C236.016,358.272 236.04,358.293 236.063,358.293C236.465,358.628 236.903,358.796 237.375,358.796L237.765,358.796L242.588,357.665C243.013,357.498 243.438,357.204 243.864,356.786C243.911,356.702 243.959,356.639 244.006,356.597C244.053,356.555 244.1,356.535 244.148,356.535C244.313,356.535 244.52,356.828 244.768,357.414C245.016,358 245.247,358.712 245.46,359.549C245.672,360.387 245.779,361.182 245.779,361.936C245.779,362.522 245.702,362.983 245.548,363.318C245.395,363.653 245.223,363.862 245.034,363.946L238.475,365.453ZM238.51,381.155L237.482,381.155C237.151,380.988 236.914,380.779 236.773,380.527C236.513,379.69 236.306,378.811 236.152,377.889C235.998,376.968 235.874,376.089 235.78,375.251C235.756,375.084 235.744,374.833 235.744,374.498C235.744,374.079 235.803,373.87 235.922,373.87C235.993,373.87 236.052,373.912 236.099,373.995C236.501,374.33 236.938,374.498 237.411,374.498L237.801,374.498L242.517,373.618C242.729,373.535 242.936,373.43 243.137,373.304C243.338,373.179 243.545,372.948 243.758,372.614C243.899,372.446 244.006,372.362 244.077,372.362C244.289,372.362 244.52,372.697 244.768,373.367C245.016,374.037 245.229,374.812 245.406,375.691C245.584,376.57 245.672,377.261 245.672,377.764C245.672,378.35 245.601,378.811 245.46,379.146C245.318,379.481 245.152,379.69 244.963,379.774L238.51,381.155ZM252.196,421.855L252.303,426.252L252.303,426.629C252.303,428.388 252.102,429.267 251.7,429.267C251.629,429.267 251.44,429.078 251.133,428.702C250.825,428.325 250.53,427.78 250.246,427.069C249.963,426.357 249.821,425.498 249.821,424.493L249.821,423.991C249.821,423.823 249.833,423.614 249.856,423.363C249.927,421.939 249.963,420.474 249.963,418.966C249.963,418.548 249.957,418.087 249.945,417.584C249.933,417.082 249.927,416.621 249.927,416.203L249.537,397.611C249.513,396.02 249.472,394.701 249.413,393.654C249.354,392.608 249.265,391.582 249.147,390.577C249.029,389.572 248.97,388.902 248.97,388.567C248.97,388.064 249.076,387.813 249.289,387.813C249.643,387.813 250.447,388.651 251.7,390.326L261.096,388.692L261.451,388.692C261.829,388.692 262.201,389.153 262.568,390.074C262.934,390.995 263.117,392.042 263.117,393.215C263.117,393.801 263.076,394.324 262.993,394.785C262.91,395.246 262.857,395.727 262.834,396.23L262.018,414.193C262.349,415.7 262.579,416.894 262.709,417.773C262.839,418.652 262.904,419.301 262.904,419.72C262.904,420.306 262.816,420.641 262.638,420.725C262.461,420.809 262.231,420.892 261.947,420.976L252.196,421.855ZM260.493,395.601L251.7,397.109L252.055,415.072L259.855,414.318L260.493,395.601ZM238.935,422.232L238.971,423.865L238.971,424.242C238.971,426.085 238.746,427.006 238.297,427.006C238.274,427.006 238.126,426.901 237.854,426.692C237.582,426.482 237.31,426.043 237.038,425.373C236.767,424.703 236.631,423.698 236.631,422.358L236.631,421.604C236.654,420.767 236.672,419.95 236.684,419.155C236.696,418.359 236.702,417.584 236.702,416.831L236.702,415.323L236.347,398.993C236.276,396.146 236.099,393.843 235.815,392.084C235.626,390.995 235.532,390.2 235.532,389.697C235.532,389.195 235.638,388.944 235.851,388.944C236.04,388.944 236.341,389.153 236.755,389.572C237.169,389.991 237.73,390.66 238.439,391.582L243.97,390.577L244.289,390.577C244.549,390.577 244.875,391.016 245.265,391.896C245.655,392.775 245.85,393.801 245.85,394.973C245.85,395.392 245.82,395.79 245.761,396.167C245.702,396.544 245.66,396.941 245.637,397.36L245.07,414.695C245.613,417.375 245.885,419.176 245.885,420.097C245.885,420.683 245.79,421.039 245.601,421.165C245.412,421.29 245.188,421.395 244.928,421.479L238.935,422.232ZM243.403,397.611L238.439,398.491L238.794,415.449L243.013,415.072L243.403,397.611ZM298.539,418.966C298.231,418.799 297.711,418.631 296.979,418.464C296.246,418.296 295.549,418.213 294.887,418.213L293.433,418.213C291.424,418.213 289.675,418.317 288.185,418.527C286.696,418.736 285.727,419.05 285.278,419.469L285.171,419.469C284.982,419.469 284.776,419.113 284.551,418.401C284.326,417.689 284.137,416.873 283.984,415.951C283.83,415.03 283.753,414.277 283.753,413.69C283.753,413.104 283.783,412.518 283.842,411.932C283.901,411.345 283.93,410.55 283.93,409.545L283.93,331.034C283.93,330.197 284.172,329.778 284.656,329.778C285.047,329.778 285.467,330.092 285.916,330.72C286.365,331.348 286.59,332.207 286.59,333.295L286.59,410.927C287.32,410.759 288.204,410.634 289.241,410.55C290.277,410.466 291.308,410.403 292.333,410.361C293.359,410.32 294.201,410.299 294.861,410.299L296.504,410.299C297.058,410.299 297.488,410.257 297.794,410.173L297.83,410.173C298.137,410.173 298.403,410.969 298.627,412.56C298.852,414.151 298.964,415.575 298.964,416.831C298.964,418.254 298.834,418.966 298.574,418.966L298.539,418.966ZM306.02,338.446C306.02,340.037 305.867,341.398 305.559,342.528C305.252,343.659 304.826,344.224 304.283,344.224C303.834,344.224 303.426,343.408 303.06,341.774C302.693,340.141 302.51,338.446 302.51,336.687C302.51,335.012 302.658,333.588 302.953,332.416C303.249,331.244 303.692,330.657 304.283,330.657C304.708,330.657 305.104,331.495 305.471,333.17C305.837,334.845 306.02,336.603 306.02,338.446ZM303.006,416.203L303.006,358.67C303.006,357.916 303.225,357.539 303.662,357.539C304.053,357.539 304.467,357.853 304.904,358.482C305.341,359.11 305.559,359.926 305.559,360.931L305.559,418.464C305.559,419.217 305.341,419.594 304.904,419.594C304.536,419.594 304.128,419.28 303.679,418.652C303.231,418.024 303.006,417.208 303.006,416.203ZM315.877,387.939C314.554,386.85 313.561,385.154 312.899,382.851C312.237,380.548 311.906,377.471 311.906,373.618C311.906,370.352 312.202,367.505 312.793,365.076C313.383,362.648 314.175,360.743 315.168,359.361C316.161,357.979 317.236,357.288 318.395,357.288C319.766,357.288 320.889,357.979 321.763,359.361C322.638,360.743 323.406,362.69 324.068,365.202C324.115,365.37 324.139,365.746 324.139,366.333C324.139,367.421 324.015,368.636 323.766,369.976C323.518,371.315 323.264,371.985 323.004,371.985C322.862,371.985 322.673,371.441 322.437,370.352C322.082,368.426 321.639,367.024 321.107,366.144C320.575,365.265 320.061,364.721 319.565,364.511C319.068,364.302 318.678,364.197 318.395,364.197C317.024,364.197 315.984,365.139 315.275,367.024C314.565,368.908 314.211,371.19 314.211,373.87C314.211,375.545 314.37,376.968 314.689,378.141C315.009,379.313 315.653,380.318 316.622,381.155L320.026,384.045C321.562,385.301 322.774,387.353 323.66,390.2C324.547,393.047 324.99,397.067 324.99,402.259C324.99,405.609 324.712,408.666 324.157,411.429C323.601,414.193 322.815,416.412 321.799,418.087C320.782,419.762 319.577,420.599 318.182,420.599C316.811,420.599 315.67,420.013 314.76,418.841C313.85,417.668 313.123,416.286 312.58,414.695C312.036,413.104 311.646,411.639 311.41,410.299C311.173,408.959 311.055,408.079 311.055,407.661C311.055,406.405 311.226,405.086 311.569,403.704C311.912,402.322 312.213,401.631 312.473,401.631C312.639,401.631 312.757,401.924 312.828,402.51C313.017,404.185 313.283,405.86 313.626,407.535C313.969,409.21 314.494,410.592 315.204,411.68C315.913,412.769 316.906,413.313 318.182,413.313C319.624,413.313 320.729,412.225 321.497,410.047C322.265,407.87 322.65,405.358 322.65,402.51C322.65,399.579 322.437,397.193 322.011,395.35C321.586,393.508 320.723,392.042 319.423,390.954L315.877,387.939ZM331.053,365.076L330.876,365.076C330.356,365.076 329.954,365.16 329.67,365.328C329.386,365.495 329.067,365.579 328.713,365.579L328.677,365.579C328.37,365.579 328.11,364.951 327.897,363.695C327.684,362.439 327.578,361.266 327.578,360.177C327.578,359.005 327.707,358.419 327.964,358.419L331.017,358.419L331.017,338.571C331.017,338.153 331.085,337.838 331.22,337.629C331.354,337.42 331.512,337.315 331.691,337.315C332.062,337.315 332.456,337.627 332.873,338.251C333.291,338.875 333.499,339.729 333.499,340.811L333.499,357.916L334.483,357.916C334.904,357.916 335.396,357.816 335.958,357.616C336.52,357.414 336.918,357.263 337.152,357.163L337.187,357.163C337.494,357.163 337.76,357.802 337.985,359.08C338.209,360.357 338.322,361.549 338.322,362.656C338.322,363.935 338.18,364.574 337.896,364.574L333.464,364.574L333.464,404.752C333.464,408.11 333.547,410.25 333.712,411.174C333.878,412.098 334.22,412.56 334.74,412.56C335.142,412.56 335.645,412.099 336.247,411.178C336.85,410.257 337.447,409.001 338.038,407.409C338.44,406.321 338.759,405.776 338.995,405.776C339.232,405.776 339.35,406.237 339.35,407.158C339.35,407.912 339.202,409.022 338.907,410.487C338.611,411.953 338.221,413.46 337.737,415.009C337.252,416.559 336.72,417.878 336.141,418.966C335.562,420.055 334.989,420.599 334.421,420.599C333.192,420.599 332.323,419.259 331.815,416.58C331.307,413.9 331.053,409.88 331.053,404.52L331.053,365.076ZM344.314,393.717L344.314,394.973C344.314,400.417 344.71,404.813 345.502,408.163C346.294,411.513 347.28,413.188 348.462,413.188C349.975,413.188 351.364,412.329 352.629,410.613C353.893,408.896 354.998,406.237 355.944,402.636C356.109,401.966 356.263,401.485 356.405,401.191C356.547,400.898 356.665,400.752 356.759,400.752C356.996,400.752 357.114,401.254 357.114,402.259C357.114,403.013 356.942,404.353 356.6,406.279C356.257,408.205 355.731,410.278 355.022,412.497C354.313,414.716 353.414,416.621 352.327,418.213C351.24,419.804 349.952,420.599 348.462,420.599C347.257,420.599 346.164,419.532 345.183,417.396C344.202,415.261 343.427,412.183 342.86,408.163C342.293,404.143 342.009,399.37 342.009,393.843L342.009,392.084C341.796,391.498 341.619,390.828 341.477,390.074C341.335,389.321 341.265,388.651 341.265,388.064C341.265,386.976 341.489,386.431 341.938,386.431C341.962,386.431 342.015,386.41 342.098,386.369C342.181,386.327 342.234,386.306 342.257,386.306C342.423,383.291 342.76,380.109 343.268,376.759C343.776,373.409 344.42,370.248 345.2,367.275C345.98,364.302 346.873,361.894 347.877,360.052C348.882,358.209 349.963,357.288 351.122,357.288C352.587,357.288 353.751,358.188 354.614,359.989C355.477,361.789 356.092,364.092 356.458,366.898C356.824,369.703 357.007,372.614 357.007,375.628C357.007,378.476 356.942,380.737 356.812,382.412C356.682,384.087 356.381,385.447 355.908,386.494C355.436,387.541 354.667,388.651 353.604,389.823C352.54,390.995 351.269,391.938 349.792,392.649C348.315,393.361 346.642,393.717 344.775,393.717L344.314,393.717ZM345.307,386.683C347.056,386.683 348.521,386.327 349.703,385.615C350.885,384.903 351.866,384.17 352.646,383.417C353.497,382.495 354.047,381.49 354.295,380.402C354.543,379.313 354.667,377.68 354.667,375.503C354.667,368.217 353.474,364.574 351.086,364.574C350.212,364.574 349.408,365.286 348.675,366.709C347.942,368.133 347.298,369.976 346.743,372.237C346.187,374.498 345.726,376.905 345.36,379.46C344.993,382.014 344.739,384.422 344.598,386.683L345.307,386.683ZM374.24,416.203C374.263,415.533 374.275,414.402 374.275,412.811L374.275,381.532C374.275,376.591 374.086,372.634 373.708,369.661C373.33,366.689 372.549,365.202 371.368,365.202C370.564,365.202 369.754,365.746 368.939,366.835C368.123,367.924 367.385,369.724 366.723,372.237C366.061,374.749 365.553,378.099 365.198,382.286C365.033,384.38 364.908,386.829 364.826,389.635C364.743,392.44 364.702,395.225 364.702,397.988L364.702,418.464C364.702,419.301 364.483,419.72 364.047,419.72C363.679,419.72 363.289,419.406 362.875,418.778C362.462,418.15 362.255,417.291 362.255,416.203L362.255,359.172C362.255,358.335 362.473,357.916 362.91,357.916C363.277,357.916 363.668,358.23 364.081,358.858C364.495,359.487 364.702,360.345 364.702,361.434L364.702,371.106C365.458,366.668 366.445,363.276 367.662,360.931C368.88,358.586 370.138,357.414 371.438,357.414C372.573,357.414 373.489,358.147 374.186,359.612C374.884,361.078 375.416,362.983 375.782,365.328C376.148,367.673 376.391,370.227 376.509,372.99C376.627,375.754 376.686,378.434 376.686,381.03L376.686,418.464C376.686,419.301 376.468,419.72 376.031,419.72C375.664,419.72 375.273,419.406 374.86,418.778C374.446,418.15 374.24,417.333 374.24,416.328L374.24,416.203ZM386.295,338.446C386.295,340.037 386.141,341.398 385.834,342.528C385.527,343.659 385.101,344.224 384.558,344.224C384.108,344.224 383.701,343.408 383.334,341.774C382.968,340.141 382.785,338.446 382.785,336.687C382.785,335.012 382.932,333.588 383.228,332.416C383.523,331.244 383.967,330.657 384.558,330.657C384.983,330.657 385.379,331.495 385.745,333.17C386.112,334.845 386.295,336.603 386.295,338.446ZM383.281,416.203L383.281,358.67C383.281,357.916 383.5,357.539 383.937,357.539C384.328,357.539 384.742,357.853 385.179,358.482C385.616,359.11 385.834,359.926 385.834,360.931L385.834,418.464C385.834,419.217 385.616,419.594 385.179,419.594C384.811,419.594 384.402,419.28 383.954,418.652C383.505,418.024 383.281,417.208 383.281,416.203ZM404.414,416.203C404.437,415.533 404.449,414.402 404.449,412.811L404.449,381.532C404.449,376.591 404.26,372.634 403.882,369.661C403.504,366.689 402.723,365.202 401.542,365.202C400.738,365.202 399.928,365.746 399.113,366.835C398.297,367.924 397.559,369.724 396.897,372.237C396.235,374.749 395.727,378.099 395.372,382.286C395.207,384.38 395.082,386.829 395,389.635C394.917,392.44 394.876,395.225 394.876,397.988L394.876,418.464C394.876,419.301 394.657,419.72 394.221,419.72C393.853,419.72 393.463,419.406 393.049,418.778C392.636,418.15 392.429,417.291 392.429,416.203L392.429,359.172C392.429,358.335 392.647,357.916 393.084,357.916C393.451,357.916 393.842,358.23 394.255,358.858C394.669,359.487 394.876,360.345 394.876,361.434L394.876,371.106C395.632,366.668 396.619,363.276 397.836,360.931C399.054,358.586 400.312,357.414 401.612,357.414C402.747,357.414 403.663,358.147 404.36,359.612C405.058,361.078 405.59,362.983 405.956,365.328C406.322,367.673 406.565,370.227 406.683,372.99C406.801,375.754 406.86,378.434 406.86,381.03L406.86,418.464C406.86,419.301 406.642,419.72 406.205,419.72C405.838,419.72 405.447,419.406 405.034,418.778C404.62,418.15 404.414,417.333 404.414,416.328L404.414,416.203ZM425.12,403.515C424.246,408.54 423.194,412.12 421.965,414.256C420.736,416.391 419.495,417.459 418.242,417.459C416.374,417.459 414.885,415.281 413.774,410.927C412.663,406.572 412.108,400.207 412.108,391.833C412.108,387.562 412.332,383.375 412.781,379.271C413.231,375.168 413.851,371.462 414.643,368.154C415.435,364.846 416.345,362.208 417.373,360.24C418.401,358.272 419.495,357.288 420.653,357.288C421.622,357.288 422.503,357.937 423.294,359.235C424.086,360.533 424.707,362.564 425.156,365.328C425.156,363.737 425.138,362.439 425.103,361.434C425.067,360.429 425.05,359.507 425.05,358.67C425.05,357.833 425.274,357.414 425.723,357.414C426.101,357.414 426.503,357.728 426.929,358.356C427.354,358.984 427.567,359.801 427.567,360.805L427.567,360.931C427.543,362.522 427.514,364.448 427.478,366.709C427.443,368.971 427.425,371.19 427.425,373.367L427.425,412.057C427.425,418.171 427.023,423.321 426.22,427.508C425.416,431.695 424.358,434.878 423.046,437.055C421.734,439.232 420.287,440.321 418.703,440.321C417.072,440.321 415.766,439.337 414.785,437.369C413.804,435.401 412.994,432.617 412.356,429.016C412.285,428.597 412.25,428.22 412.25,427.885C412.25,426.629 412.433,425.31 412.799,423.928C413.166,422.546 413.502,421.855 413.81,421.855C414.046,421.855 414.212,422.274 414.306,423.112C414.732,426.545 415.269,428.995 415.919,430.46C416.569,431.926 417.497,432.658 418.703,432.658C419.932,432.658 421.025,431.821 421.983,430.146C422.94,428.471 423.702,426.085 424.27,422.986C424.837,419.887 425.12,416.203 425.12,411.932L425.12,403.515ZM425.12,369.347C424.932,370.269 424.708,370.729 424.449,370.729C424.261,370.729 424.108,370.478 423.99,369.976C423.636,368.301 423.153,367.003 422.54,366.081C421.928,365.16 421.304,364.7 420.668,364.7C419.796,364.7 418.989,365.474 418.247,367.024C417.505,368.573 416.857,370.666 416.303,373.304C415.75,375.942 415.314,378.852 414.996,382.035C414.678,385.217 414.519,388.441 414.519,391.707C414.519,398.323 414.833,403.013 415.461,405.776C416.09,408.54 417.021,409.922 418.255,409.922C419.108,409.922 420.003,409.168 420.94,407.661C421.877,406.153 422.719,403.934 423.466,401.003C424.213,398.072 424.729,394.429 425.014,390.074C425.085,389.153 425.12,387.562 425.12,385.301L425.12,369.347Z" style="fill:white;"/>
            </g>
        </g>
        <g transform="matrix(1,0,0,1,-714.987024,-66.718396)">
            <text x="987.109px" y="459.744px" style="font-family:'MochiyPopPOne-Regular', 'Mochiy Pop P One';font-size:125px;fill:white;">わ<tspan x="1111.859px 1243.484px 1341.859px 1452.984px 1575.609px 1607.984px " y="459.744px 459.744px 459.744px 459.744px 459.744px 459.744px ">かります か</tspan></text>
            <g transform="matrix(137.5,0,0,137.5,1739.60915,459.743577)">
                <path d="M0.208,-0.239L0.208,-0.28C0.208,-0.313 0.216,-0.342 0.232,-0.365C0.248,-0.389 0.272,-0.412 0.305,-0.433C0.322,-0.444 0.336,-0.458 0.345,-0.473C0.355,-0.488 0.359,-0.504 0.359,-0.521C0.359,-0.54 0.353,-0.554 0.339,-0.565C0.326,-0.575 0.307,-0.58 0.282,-0.58L0.291,-0.703C0.357,-0.703 0.408,-0.689 0.445,-0.66C0.481,-0.631 0.5,-0.59 0.5,-0.538C0.5,-0.499 0.49,-0.463 0.47,-0.43C0.451,-0.398 0.422,-0.369 0.383,-0.344C0.367,-0.334 0.355,-0.322 0.348,-0.308C0.34,-0.294 0.336,-0.277 0.336,-0.257L0.336,-0.239L0.208,-0.239ZM0.116,-0.496L0.044,-0.588C0.069,-0.623 0.103,-0.651 0.147,-0.672C0.191,-0.693 0.239,-0.703 0.291,-0.703L0.282,-0.58C0.251,-0.58 0.221,-0.572 0.191,-0.557C0.162,-0.542 0.137,-0.521 0.116,-0.496ZM0.274,0.01C0.25,0.01 0.229,0.001 0.211,-0.016C0.194,-0.034 0.186,-0.055 0.186,-0.079C0.186,-0.104 0.194,-0.125 0.211,-0.142C0.229,-0.159 0.25,-0.168 0.274,-0.168C0.299,-0.168 0.32,-0.159 0.337,-0.142C0.355,-0.125 0.363,-0.104 0.363,-0.079C0.363,-0.055 0.355,-0.034 0.337,-0.016C0.32,0.001 0.299,0.01 0.274,0.01Z" style="fill:white;fill-rule:nonzero;"/>
            </g>
        </g>
    </g>
</svg>
